<svg width="21" height="20" viewBox="0 0 21 20" fill="none" xmlns="http://www.w3.org/2000/svg">
<path d="M17.8842 8.66147C17.8678 8.56741 17.7853 8.5 17.6899 8.5H10.7C10.5895 8.5 10.5 8.58954 10.5 8.7V11.3C10.5 11.4105 10.5895 11.5 10.7 11.5H14.7386C14.1203 13.2464 12.4586 14.5 10.5 14.5C8.01488 14.5 6 12.4851 6 10C6 7.51488 8.01488 5.5 10.5 5.5C11.5793 5.5 12.567 5.8831 13.3419 6.51717C13.4239 6.58426 13.5439 6.58113 13.6188 6.50623L15.4603 4.66474C15.5403 4.58468 15.5382 4.45399 15.4533 4.37908C14.1319 3.21291 12.401 2.5 10.5 2.5C6.35812 2.5 3 5.85812 3 10C3 14.1419 6.35812 17.5 10.5 17.5C14.6419 17.5 18 14.1419 18 10C18 9.5535 17.9592 9.09192 17.8842 8.66147Z" fill="currentColor"/>
</svg>
